/* XPM */
static char * west_xpm[] = {
"64 64 5 1",
" 	c #26D5AA",
".	c #1AAA86",
"+	c #0E3F33",
"@	c #FFFFFF",
"#	c #DAD1D1",
"    ..   .+      .  .+         .+         .+     ..  .+   .     ",
"         .+         .+   .     .+      .  .+         .+       . ",
"..........+..........+..........+..........+..........+.........",
"++++++++++++++++++++++++++++++++++++++++++++++++++++++++++++++++",
"   +          +          +          +          +          +     ",
"  .+   ..    .+      .. .+         .+      .  .+         .+     ",
" ..+      .  .+  .      .+   ..    .+  .      .+ .       .+  .. ",
"  .+         .+         .+      .  .+         .+         .+     ",
"...+..........+..........+..........+..........+..........+.....",
"++++++++++++++++++++++++++++++++++++++++++++++++++++++++++++++++",
"       +          +        @@#@@@@@@@   +          +          + ",
"      .+      .. .+    @@@@ .+       @@##  ..     .+    .    .+ ",
"  ..  .+  ..     .+  @@   . .+    ..   .+@@       .+     ..  .+ ",
"      .+         .+@@      ..+ .       .+  @@ ..  .+         .+ ",
".......+.........##..........+..........+....##....+..........+.",
"++++++++++++++++@++++++++++++++++++++++++++++++#++++++++++++++++",
"+          +   @      +          +          +   @      +        ",
"+     .   .+  @   .. .+      .. .+  ..     .+  . @    .+    .   ",
"+  .    ...+ @.      .+   ..    .+     ..  .+     @.. .+ ..   . ",
"+         .+@        .+ ..      .+         .+.  .  @  .+        ",
"+..........#.....@....+..........+..........+.@.....#..+........",
"+++++++++++#+++++##++++++++++++++++++++++++++@@+++++#+++++++++++",
"    +     @    + #@@      +          +      @@# +    @     +    ",
"   .+  .. @   .+  @@. .. .+    ..   .+   .. @@ .+    @.   .+    ",
".. .+ .  @. . .+  @@@    .+  .     ..+     @@# .+     @   .+   .",
"   .+    @    .+  #@@    .+         .+     @@# .+  .  @ . .+ .. ",
"....+....#.....+...@@@....+..........+....###...+.....#....+....",
"++++++++#++++++++++###++++++++++++++++++++@@#++++++++++#++++++++",
"        @          #@@        + .       + @@#       +  @       +",
"   ..  .@ .   ..   +@@@  ..   +       ..+@@@ ..    .+  @      .+",
". .  . .@   .    ..+@@@.      +    .    +@@#       .+. @..  . .+",
"       .@          +#@@     . +         +@@#   .   .+  @      .+",
"........@..........+.@@.......+.........+##.........+..#.......+",
"++++++++#++++++++++++###+++++++@#+++++++@@#++++++++++++#++++++++",
" +      @   +        #@@      @@@@+     @@# +          @+       ",
".+    ..@  .+  ..     @@ .   @@##@# .   @@..+     ..   #+     ..",
".+       @ .+      .. @@@   @@#  ##@   @@# .+         @.+  .    ",
".+ ..    @ .+ .       #@@   @@   .#@   @@# .+  .      @.+       ",
".+.......#..+..........##..###....###..##...+.........#.+.......",
"++++++++++#++++++++++++###+##++++++######++++++++++++#++++++++++",
"     +    @     +      #@@@##      #@@#@#       +    @      +   ",
"   ..+  .. @ . .+    .  @@@#  .     @@#@    .. .+   @   .  .+   ",
"..  .+     @   .+ ..   .#@@#     .. @### ..    .+ . @..    .+   ",
"    .+      @  .+        @@#        ###        .+  @       .+   ",
".....+.......#..+........##+.........##.........+.#.........+...",
"++++++++++++++#+++++++++++#++++++++++#+++++++++++#++++++++++++++",
"         +     @    +          +          +     @   +          +",
"        .+   .  @  .+         .+        ..+    @   .+         .+",
" .. .   .+      .@@.+    . .. .+   . ..  .+  @@  . .+  ..  .. .+",
"        .+         ##         .+         .+@@  .   .+    .    .+",
".........+..........+##........+.........##.........+..........+",
"+++++++++++++++++++++++####++++++++++####+++++++++++++++++++++++",
"  +          +          +  @@@@@@@@@@         +         +       ",
" .+         .+         .+         .+         .+     .. .+       ",
" .+  ..    ..+  ..  .  .+     ..  .+      .  .+        .+ ..  . ",
" .+      .  .+       . .+        ..+  ..     .+  . .   .+       ",
"..+..........+..........+..........+..........+.........+.......",
"++++++++++++++++++++++++++++++++++++++++++++++++++++++++++++++++",
"      +          +          +          +           +          + ",
"     .+         .+         .+         .+          .+      .  .+ ",
".   ..+  ..  .  .+   .  .. .+  .    . .+   ..   . .+  ..    ..+ ",
"   . .+       . .+         .+    ..   .+      .   .+         .+ ",
"......+..........+..........+..........+...........+..........+.",
"++++++++++++++++++++++++++++++++++++++++++++++++++++++++++++++++"};
